HIERARCHY
ROOT root
{
	OFFSET	0	13.1	24.9
	CHANNELS 6  Xposition Yposition Zposition Xrotation Yrotation Zrotation
	JOINT spine_1
	{
		OFFSET	0	9.99999	0
		CHANNELS 3  Xrotation Yrotation Zrotation
		JOINT spine_2
		{
			OFFSET	0	112	-10
			CHANNELS 3  Xrotation Yrotation Zrotation
			JOINT spine_3
			{
				OFFSET	0	206.5	19.3
				CHANNELS 3  Xrotation Yrotation Zrotation
				JOINT spine_4
				{
					OFFSET	0	110.4	14.6
					CHANNELS 3  Xrotation Yrotation Zrotation
					JOINT neck_1
					{
						OFFSET	0	71.8	-50.3
						CHANNELS 3  Xrotation Yrotation Zrotation
						JOINT neck_2
						{
							OFFSET	0	86.2	-25.8
							CHANNELS 3  Xrotation Yrotation Zrotation
							JOINT head_ee
							{
								OFFSET	0	179.8	-8.7
								CHANNELS 3  Xrotation Yrotation Zrotation
								End Site
								{
									OFFSET	1	0	0
								}
							}
						}
					}
					JOINT left_clavicle
					{
						OFFSET	-43.2	22.4	-70.8
						CHANNELS 3  Xrotation Yrotation Zrotation
						JOINT left_shoulder
						{
							OFFSET	-93.9	-5.79999	48.7
							CHANNELS 3  Xrotation Yrotation Zrotation
							JOINT left_elbow
							{
								OFFSET	-291.4	-30.8	15.2
								CHANNELS 3  Xrotation Yrotation Zrotation
								JOINT left_lowarm_twist
								{
									OFFSET	-110.7	-3.89999	13.6
									CHANNELS 3  Xrotation Yrotation Zrotation
									JOINT left_hand
									{
										OFFSET	-110.7	-3.89999	13.6
										CHANNELS 3  Xrotation Yrotation Zrotation
										JOINT left_ee
										{
											OFFSET	-80.8	-5.10001	12.1
											CHANNELS 3  Xrotation Yrotation Zrotation
											End Site
											{
												OFFSET	1	0	0
											}
										}
									}
								}
							}
						}
					}
					JOINT right_clavicle
					{
						OFFSET	43.2	22.4	-70.8
						CHANNELS 3  Xrotation Yrotation Zrotation
						JOINT right_shoulder
						{
							OFFSET	93.9	-5.79999	48.7
							CHANNELS 3  Xrotation Yrotation Zrotation
							JOINT right_elbow
							{
								OFFSET	291.4	-30.8	15.2
								CHANNELS 3  Xrotation Yrotation Zrotation
								JOINT right_lowarm_twist
								{
									OFFSET	110.7	-3.89999	13.6
									CHANNELS 3  Xrotation Yrotation Zrotation
									JOINT right_hand
									{
										OFFSET	110.7	-3.89999	13.6
										CHANNELS 3  Xrotation Yrotation Zrotation
										JOINT right_ee
										{
											OFFSET	80.8	-5.10001	12.1
											CHANNELS 3  Xrotation Yrotation Zrotation
											End Site
											{
												OFFSET	1	0	0
											}
										}
									}
								}
							}
						}
					}
				}
			}
		}
	}
	JOINT left_hip
	{
		OFFSET	-82.8	-127.5	0.300001
		CHANNELS 3  Xrotation Yrotation Zrotation
		JOINT left_knee
		{
			OFFSET	-28.2	-396.7	2.2
			CHANNELS 3  Xrotation Yrotation Zrotation
			JOINT left_ankle
			{
				OFFSET	-11.7	-411.3	35.4
				CHANNELS 3  Xrotation Yrotation Zrotation
				JOINT left_toes
				{
					OFFSET	0	-60	-88.6
					CHANNELS 3  Xrotation Yrotation Zrotation
					JOINT left_foot_ee
					{
						OFFSET	-22.5	-16.5	-42.2
						CHANNELS 3  Xrotation Yrotation Zrotation
						End Site
						{
							OFFSET	1	0	0
						}
					}
				}
			}
		}
	}
	JOINT right_hip
	{
		OFFSET	82.8	-127.5	0.300001
		CHANNELS 3  Xrotation Yrotation Zrotation
		JOINT right_knee
		{
			OFFSET	28.2	-396.7	2.2
			CHANNELS 3  Xrotation Yrotation Zrotation
			JOINT right_ankle
			{
				OFFSET	11.7	-411.3	35.4
				CHANNELS 3  Xrotation Yrotation Zrotation
				JOINT right_toes
				{
					OFFSET	0	-60	-88.6
					CHANNELS 3  Xrotation Yrotation Zrotation
					JOINT right_foot_ee
					{
						OFFSET	22.5	-16.5	-42.2
						CHANNELS 3  Xrotation Yrotation Zrotation
						End Site
						{
							OFFSET	1	0	0
						}
					}
				}
			}
		}
	}
}
MOTION
Frames: 5
Frame Time: 0.02
3431.01759901 718.449 -1527.14895258 -170.542608779 72.4010678095 172.634345112 0.349262 0.0263894 -1.06978 0.349894 0.0944046 -1.06593 0.348316 0.310147 -1.02418 0.346881 0.144514 -1.0603 -3.42452 10.2974 3.96453 -3.3124 15.7173 5.64264 -0.0 0.0 -0.0 0.554838 18.3653 2.98736 -8.95385 -38.3285 73.3059 0.844398 -22.6989 0.169488 -48.019 -3.84146 4.5753 1.36304 8.64325 12.4942 -0.0 0.0 -0.0 11.9469 1.62505 -23.8648 -8.97247 15.7933 -60.5726 0.309983 8.73013 -0.0236618 -85.1845 8.47499 -5.18001 -11.8132 -31.0281 68.9438 0.0 0.0 0.0 6.66762 3.74724 -10.321 -6.96272 0.223426 1.04456 37.1977 -22.0659 -5.18258 -2.82089 0.0 0.0 -0.0 0.0 -0.0 -0.289927 -15.3368 -5.76478 -16.0471 -0.321763 -2.43353 36.7541 2.29372 4.60635 -0.815613 0.0 0.0 0.0 0.0 0.0 
3432.64454776 718.449 -1531.40200668 -169.562130785 74.0842985988 171.610496881 0.349262 0.0263894 -1.06978 0.349894 0.0944046 -1.06593 0.348316 0.310147 -1.02418 0.346881 0.144514 -1.0603 -3.42452 10.2974 3.96453 -3.3124 15.7173 5.64264 -0.0 0.0 -0.0 0.554838 18.3653 2.98736 -8.95385 -38.3285 73.3059 0.844398 -22.6989 0.169488 -48.019 -3.84146 4.5753 1.36304 8.64325 12.4942 -0.0 0.0 -0.0 11.9469 1.62505 -23.8648 -8.97247 15.7933 -60.5726 0.309983 8.73013 -0.0236618 -85.1845 8.47499 -5.18001 -11.8132 -31.0281 68.9438 0.0 0.0 0.0 6.66762 3.74724 -10.321 -6.96272 0.223426 1.04456 37.1977 -22.0659 -5.18258 -2.82089 0.0 0.0 -0.0 0.0 -0.0 -0.289927 -15.3368 -5.76478 -16.0471 -0.321763 -2.43353 36.7541 2.29372 4.60635 -0.815613 0.0 0.0 0.0 0.0 0.0 
3420.66734355 708.244 -1528.36432329 -169.561755282 70.7996518404 171.883072925 0.61595 0.0930103 -1.02512 0.616521 0.15805 -1.01713 0.61381 0.358019 -0.965072 0.612567 0.201119 -1.0095 -4.54622 10.4065 3.60663 -4.45917 16.3738 5.41408 -0.0 0.0 -0.0 0.0813764 17.59 2.18535 -10.4779 -37.1349 72.7032 0.808789 -21.8334 0.155995 -47.4141 -3.77187 4.54087 1.53471 8.27564 13.5001 -0.0 0.0 -0.0 11.9073 2.16708 -23.8139 -7.25704 17.2245 -60.7053 0.456184 12.734 -0.0509037 -85.2697 8.48562 -5.17788 -11.9877 -31.9644 68.5683 0.0 0.0 0.0 9.09088 3.18503 -10.896 -6.79277 0.219492 1.01877 38.0908 -19.7375 -5.16643 -2.04833 0.0 0.0 -0.0 0.0 -0.0 -0.506661 -14.5453 -6.3579 -16.5734 -0.320698 -2.51429 39.541 5.18895 4.89474 -1.60713 0.0 0.0 0.0 0.0 0.0 
3409.59937424 705.932 -1523.6811943 -169.60262733 68.7621394555 172.261798163 0.845984 0.267503 -0.945406 0.846422 0.327117 -0.926471 0.84111 0.502239 -0.844464 0.840298 0.362574 -0.913179 -6.01602 10.0163 3.43701 -5.96928 16.0026 5.34474 -0.0 0.0 -0.0 -0.643204 19.0469 1.2644 -12.7461 -35.9112 72.2454 0.777491 -21.0639 0.14455 -47.0421 -3.72927 4.51933 1.55549 8.47272 13.7112 -0.0 0.0 -0.0 12.0355 2.45817 -24.1111 -5.96471 18.1966 -60.6208 0.61371 16.9101 -0.0912286 -85.2961 8.48891 -5.17721 -12.1967 -33.0753 67.9925 0.0 0.0 0.0 10.8628 2.72462 -11.3765 -9.78296 0.277525 1.47391 38.596 -18.1618 -5.1508 -1.71343 0.0 0.0 -0.0 0.0 -0.0 -1.16735 -15.1807 -7.06863 -16.9081 -0.319635 -2.56563 41.2018 5.54573 5.04166 -1.69273 0.0 0.0 0.0 0.0 0.0 
3394.17066225 711.549 -1516.49513309 -170.644411123 67.8797994302 173.906871343 1.06025 0.367287 -1.03446 1.06074 0.432365 -1.009 1.05305 0.618278 -0.907061 1.0522 0.467273 -0.993314 -6.99046 9.561 2.86913 -6.97564 15.704 4.8048 -0.0 0.0 -0.0 -1.17748 20.3339 0.652336 -14.2259 -34.1241 72.2629 0.649889 -17.8453 0.102034 -46.0201 -3.61294 4.45874 1.57401 9.24036 14.1147 -0.0 0.0 -0.0 12.2607 2.6035 -24.6126 -4.91274 18.7591 -60.8123 0.735014 20.0068 -0.129649 -85.1897 8.47563 -5.17988 -12.361 -33.9025 67.6122 0.0 0.0 0.0 17.1811 1.28208 -10.196 -13.0203 0.313492 1.96927 37.0854 -16.8495 -4.96039 -3.21303 0.0 0.0 -0.0 0.0 -0.0 -3.88993 -15.5896 -8.30169 -14.8299 -0.321385 -2.24679 39.315 5.46535 4.87929 -1.81853 0.0 0.0 0.0 0.0 0.0 
